<?xml version="1.0" encoding="UTF-8"?>
<svg id="Capa_2" data-name="Capa 2" xmlns="http://www.w3.org/2000/svg" viewBox="0 0 332.77 99.79">
  <defs>
    <style>
      .cls-1 {
        fill: #fff;
      }
    </style>
  </defs>
  <g id="Capa_1-2" data-name="Capa 1">
    <g>
      <path class="cls-1" d="M71.94,2.12v10.31c0,3.03-2.33,5.49-5.21,5.49h-20.89c-.61,0-1.11.52-1.11,1.17v80.51h-.23c-9.59,0-17.36-8.19-17.36-18.3V19.08c0-.65-.5-1.17-1.11-1.17H2.56c-1.42,0-2.56-1.21-2.56-2.7v-7.37C0,3.51,3.33,0,7.44,0h62.5c1.11,0,2.01.95,2.01,2.12Z"/>
      <path class="cls-1" d="M120.08,27.24c-1.41,0-2.55,1.15-2.55,2.56v37.04c0,7.56-5.77,14.09-13.28,14.43-7.97.36-14.53-6.05-14.53-13.99V29.81c0-1.42-1.14-2.56-2.55-2.56h-12.3c-1.41,0-2.55,1.15-2.55,2.56v43.62c0,11.33,5.73,21.62,15.85,25.03,2.55.86,6.82,1.29,9.67,1.33,12.01.17,15.35-3.86,19.6-9.91.02-.04.08-.02.08.02v6.47c0,1.53,1.23,2.77,2.75,2.77h11.89c1.52,0,2.75-1.24,2.75-2.77V29.81c0-1.42-1.14-2.56-2.55-2.56h-12.3Z"/>
      <rect class="cls-1" x="234.47" y="27.28" width="17.67" height="72.31" rx="3.56" ry="3.56"/>
      <circle class="cls-1" cx="243.3" cy="8.91" r="8.89"/>
      <path class="cls-1" d="M297.13,27.43c-19.68,0-35.64,16.15-35.64,36.08s15.95,36.08,35.64,36.08,35.64-16.15,35.64-36.08-15.95-36.08-35.64-36.08ZM297.13,83.99c-10.04,0-18.18-9.12-18.18-20.37s8.14-20.37,18.18-20.37,18.18,9.12,18.18,20.37-8.14,20.37-18.18,20.37Z"/>
      <path class="cls-1" d="M195.04,27.29h-5.92v17.4h.84c5.64,0,10.54,2.26,13.05,7.17,1.15,2.24,1.8,4.81,1.8,7.54v36.67c0,1.95,1.48,3.53,3.32,3.53h13.83c1.64,0,2.96-1.41,2.96-3.15v-39.12c0-17.54-13.38-30.04-29.88-30.04Z"/>
      <path class="cls-1" d="M180.23,27.34c-4.72.27-10.25,2.19-13.51,5.87-.61.69-1.18,1.44-1.68,2.24-.46.73-.79,1.82-1.72,1.82-.7,0-1.26-.62-1.26-1.39v-6.08c0-1.41-1.04-2.55-2.32-2.55h-12.07c-1.78,0-3.23,1.59-3.23,3.55v64.66c0,2.28,1.68,4.13,3.75,4.13h14.28c1.25,0,2.26-1.11,2.26-2.49v-40.97c0-8.72,5.44-11.44,13.35-11.44h2.15v-17.35Z"/>
    </g>
  </g>
</svg>